<svg xmlns="http://www.w3.org/2000/svg">

<symbol id="edit" viewBox="0 0 24 24">
<path fill-rule="evenodd" clip-rule="evenodd" d="m3.99 16.854-1.314 3.504a.75.75 0 0 0 .966.965l3.503-1.314a3 3 0 0 0 1.068-.687L18.36 9.175s-.354-1.061-1.414-2.122c-1.06-1.06-2.122-1.414-2.122-1.414L4.677 15.786a3 3 0 0 0-.687 1.068zm12.249-12.63 1.383-1.383c.248-.248.579-.406.925-.348.487.08 1.232.322 1.934 1.025.703.703.945 1.447 1.025 1.934.058.346-.1.677-.348.925L19.774 7.76s-.353-1.06-1.414-2.12c-1.06-1.062-2.121-1.415-2.121-1.415z" /></symbol>

<symbol id="delete" viewBox="0 0 1024 1024">
<path d="M512 897.6c-108 0-209.6-42.4-285.6-118.4-76-76-118.4-177.6-118.4-285.6 0-108 42.4-209.6 118.4-285.6 76-76 177.6-118.4 285.6-118.4 108 0 209.6 42.4 285.6 118.4 157.6 157.6 157.6 413.6 0 571.2-76 76-177.6 118.4-285.6 118.4z m0-760c-95.2 0-184.8 36.8-252 104-67.2 67.2-104 156.8-104 252s36.8 184.8 104 252c67.2 67.2 156.8 104 252 104 95.2 0 184.8-36.8 252-104 139.2-139.2 139.2-364.8 0-504-67.2-67.2-156.8-104-252-104z"/>
<path d="M707.872 329.392L348.096 689.16l-31.68-31.68 359.776-359.768z" />
<path d="M328 340.8l32-31.2 348 348-32 32z" />
</symbol>

<symbol id="arrow">
<polyline data-name="Right" id="Right-2" points="16.4 7 21.5 12 16.4 17" stroke="#000000" stroke-linecap="round" stroke-linejoin="round" stroke-width="2"/>
<line  stroke="#000000"  stroke-linecap="round" stroke-linejoin="round" stroke-width="2" x1="2.5" x2="19.2" y1="12" y2="12"/>
</symbol>
</svg>