<svg width="50" height="50" viewBox="0 0 50 50" fill="none" xmlns="http://www.w3.org/2000/svg">
<g clip-path="url(#clip0_123_145)">
<path d="M47.0245 33.8894L49.9556 15.1737C50.2604 13.2745 48.9681 11.4875 47.0688 11.1818L7.51699 4.83359C5.61777 4.5288 3.83086 5.82109 3.52607 7.7203L2.12061 16.4729V33.7805L47.0245 33.8894Z" fill="#146AA8"/>
<path d="M47.0689 11.1824L35.8353 9.37988C28.2905 20.9243 16.0937 28.9202 6.74023 33.7924L47.0244 33.89L49.9556 15.1743C50.2604 13.275 48.9681 11.4881 47.0689 11.1824Z" fill="#126099"/>
<path d="M3.48329 15.6025H43.541C45.4647 15.6025 47.0243 17.1622 47.0243 19.0858V41.7272C47.0243 43.6508 45.4647 45.2105 43.541 45.2105H3.48329C1.55966 45.2104 0 43.6508 0 41.7272V19.0858C0 17.1622 1.55966 15.6025 3.48329 15.6025Z" fill="#4398D1"/>
<path d="M43.5409 15.6025H42.8442C34.6236 30.1967 19.2633 40.2076 9.88623 45.2104H43.5409C45.4645 45.2104 47.0242 43.6507 47.0242 41.7271V19.0858C47.0242 17.1622 45.4645 15.6025 43.5409 15.6025Z" fill="#3E8CC7"/>
<path d="M13.0622 19.957H4.354V26.9236H13.0622V19.957Z" fill="#FDB62F"/>
<path d="M6.9665 22.5693H4.354V24.3109H6.9665V22.5693Z" fill="#FD7B2F"/>
<path d="M13.0622 22.5693H10.4497V24.3109H13.0622V22.5693Z" fill="#FD7B2F"/>
<path d="M38.316 40.8566C40.7207 40.8566 42.6701 38.9072 42.6701 36.5025C42.6701 34.0978 40.7207 32.1484 38.316 32.1484C35.9113 32.1484 33.9619 34.0978 33.9619 36.5025C33.9619 38.9072 35.9113 40.8566 38.316 40.8566Z" fill="#FDB62F"/>
<path d="M33.0909 40.8566C35.4956 40.8566 37.445 38.9072 37.445 36.5025C37.445 34.0978 35.4956 32.1484 33.0909 32.1484C30.6862 32.1484 28.7368 34.0978 28.7368 36.5025C28.7368 38.9072 30.6862 40.8566 33.0909 40.8566Z" fill="#DE4C3C"/>
<path d="M8.70829 33.0195H3.4834V34.7611H8.70829V33.0195Z" fill="#87CED9"/>
<path d="M17.4163 33.0195H12.1914V34.7611H17.4163V33.0195Z" fill="#87CED9"/>
<path d="M26.1248 33.0195H20.8999V34.7611H26.1248V33.0195Z" fill="#87CED9"/>
<path d="M26.1248 38.2441H3.4834V39.9857H26.1248V38.2441Z" fill="#87CED9"/>
<path d="M32.2206 19.957H30.479V23.4403H32.2206V19.957Z" fill="#87CED9"/>
<path d="M35.7035 19.957H33.9619V23.4403H35.7035V19.957Z" fill="#87CED9"/>
<path d="M39.1869 19.957H37.4453V23.4403H39.1869V19.957Z" fill="#87CED9"/>
<path d="M42.6703 19.957H40.9287V23.4403H42.6703V19.957Z" fill="#87CED9"/>
</g>
<defs>
<clipPath id="clip0_123_145">
<rect width="50" height="50" fill="white"/>
</clipPath>
</defs>
</svg>
