<svg width="73" height="76" viewBox="0 0 73 76" fill="none" xmlns="http://www.w3.org/2000/svg">
<g filter="url(#filter0_f_126_143)">
<rect x="20.0645" y="34.8545" width="32.7852" height="20.6544" fill="#FBA457" fill-opacity="0.5"/>
</g>
<rect x="20.0645" y="34.8545" width="32.7852" height="20.6544" fill="#FBA457"/>
<path d="M64.8407 58.2526H61.2964L61.6231 57.8542C63.2965 55.8141 63.8168 53.0829 63.015 50.5486L59.813 40.4276C59.0096 37.8884 57.0211 35.9818 54.4936 35.3273L52.9024 34.9153C52.2772 34.0167 51.2945 33.3959 50.1682 33.2743L50.1691 29.2433C50.1693 28.7214 49.7561 28.2983 49.2464 28.2982C48.7368 28.2982 48.3234 28.721 48.3232 29.2428L48.3223 33.252H46.4793L44.1964 32.6609C43.6186 32.5111 43.1885 32.0245 43.1008 31.421L42.5764 27.815C44.6919 26.1101 46.2592 23.8134 46.7324 21.0694H47.4938C47.784 21.0694 48.0634 21.0212 48.3253 20.9335L48.3244 24.8179C48.3242 25.3398 48.7374 25.7629 49.2471 25.763C49.7567 25.763 50.1701 25.3402 50.1702 24.8184C50.1707 24.0649 50.1733 15.2371 50.1733 12.3281C50.1791 5.51657 44.7964 0 38.1415 0H34.7724L34.7329 0.000126064C34.7256 0.000126064 34.7185 0.000756386 34.7111 0.000756386C28.079 0.0344156 22.7348 5.54279 22.7405 12.3276C22.7405 15.5007 22.7386 12.2403 22.7458 33.2742C21.6194 33.3959 20.6367 34.0166 20.0116 34.9151L18.4203 35.3271C15.8928 35.9817 13.9044 37.8882 13.101 40.4274L9.89894 50.5485C9.09716 53.0829 9.61743 55.814 11.2907 57.8539L11.6175 58.2524H8.07324C6.37869 58.2524 5 59.6638 5 61.3986C5 63.1335 6.37857 64.5449 8.07324 64.5449H64.8408C66.5354 64.5449 67.9141 63.1335 67.9141 61.3987C67.9139 59.664 66.5354 58.2526 64.8407 58.2526ZM58.0568 41.0096L61.2589 51.1307C61.8635 53.0416 61.4712 55.1007 60.2095 56.6389L58.8862 58.2526H57.1857C57.3735 57.7362 57.4728 57.1855 57.4728 56.621C57.4728 55.5407 56.6142 54.6617 55.5589 54.6617H53.6165V37.1993C53.6165 37.1488 53.6146 37.0986 53.6128 37.0484C53.7349 37.1136 56.9513 37.5151 58.0568 41.0096ZM55.559 56.5514C55.5965 56.5514 55.6269 56.5826 55.6269 56.6209C55.6269 57.2132 55.4429 57.7793 55.1077 58.2524H17.8062C17.471 57.7792 17.2871 57.213 17.2871 56.6209C17.2871 56.5825 17.3175 56.5514 17.3549 56.5514H55.559ZM48.326 18.3566C48.3101 18.8131 47.9434 19.1796 47.4938 19.1796H46.8774L46.8868 15.3496H47.4951C47.9477 15.3496 48.3164 15.7215 48.3266 16.1822L48.326 18.3566ZM32.2042 4.52999C32.2042 3.08517 33.3314 1.90584 34.7267 1.89096C34.742 1.89096 34.7571 1.88983 34.7724 1.88983H38.1415C43.7742 1.88983 48.3324 6.55862 48.3274 12.3271L48.3272 13.4599C47.0581 13.4599 44.649 13.4599 40.8721 13.4599C36.0926 13.4599 32.2043 9.47915 32.2043 4.58622L32.2042 4.52999ZM32.4895 11.0739C34.4109 13.6693 37.4529 15.3496 40.872 15.3496H45.0407L45.0308 19.3789C45.0308 22.5856 43.1966 25.0224 41.1287 26.5786C41.1152 26.5865 38.6501 28.5068 36.4568 28.5693C34.4308 28.5115 31.8916 26.6407 31.7871 26.5798C29.7183 25.023 27.8829 22.5847 27.8829 19.3744C27.8619 14.6464 27.8823 19.2239 27.8605 14.302C27.8584 13.8187 28.2397 13.4262 28.7121 13.4262C30.3532 13.4264 31.7794 12.4702 32.4895 11.0739ZM41.9126 33.252H31.0013C31.3305 32.8071 31.5551 32.2775 31.6392 31.6994L32.034 28.9847C33.7083 29.9623 35.3379 30.4352 36.4373 30.4593C36.4439 30.4594 36.4504 30.4595 36.4571 30.4595C36.4637 30.4595 36.4703 30.4594 36.4769 30.4593C37.5763 30.4352 39.2059 29.9625 40.8802 28.9847L41.275 31.6994C41.3589 32.2775 41.5835 32.8071 41.9126 33.252ZM25.4203 21.0694H26.1819C26.6548 23.8106 28.2193 26.1077 30.3377 27.815L29.8132 31.421C29.7256 32.0245 29.2954 32.5111 28.7178 32.6607L26.4346 33.2519H24.5917L24.5886 20.9335C24.8506 21.0213 25.1299 21.0694 25.4203 21.0694ZM24.588 18.3566L24.5875 16.1822C24.5977 15.7215 24.9664 15.3496 25.4189 15.3496H26.0193L26.0363 19.1796H25.4203C24.9706 19.1797 24.6039 18.8131 24.588 18.3566ZM30.7122 2.75085C30.4847 3.29759 30.3583 3.89892 30.3583 4.52987C30.3707 4.65934 30.2712 6.45311 31.1229 8.60855V9.06869C31.1229 10.4294 30.0414 11.5365 28.7122 11.5365C27.4986 11.5365 26.4865 12.3505 26.1424 13.4598H25.4189C25.1285 13.4598 24.8489 13.5079 24.5869 13.5959L24.5865 12.3264C24.5828 7.99815 27.1366 4.34228 30.7122 2.75085ZM11.6552 51.1308L14.8572 41.0097C15.9623 37.5167 19.1768 37.1148 19.3013 37.0485C19.2994 37.0987 19.2976 37.1488 19.2976 37.1994L19.2975 47.2166C19.2975 47.7385 19.7107 47.2166 20.2204 47.2166C20.7302 47.2166 21.1433 47.7385 21.1433 47.2166L21.1435 37.1994C21.1435 36.0649 22.0451 35.1418 23.1534 35.1418H49.7608C50.8691 35.1418 51.7707 36.0649 51.7707 37.1994V54.6617H21.1433V47.2166C21.1433 46.6947 20.7301 46.2718 20.2204 46.2718C19.7106 46.2718 19.2975 46.6947 19.2975 47.2166V54.6617H17.355C16.2997 54.6617 15.4412 55.5407 15.4412 56.621C15.4412 57.1855 15.5405 57.7363 15.7282 58.2526H14.0279L12.7045 56.6388C11.4429 55.1008 11.0506 53.0415 11.6552 51.1308ZM64.8407 62.6551H8.07324C7.39646 62.6551 6.84601 62.0915 6.84601 61.3987C6.84601 60.7059 7.39658 60.1424 8.07324 60.1424H64.8408C65.5176 60.1424 66.0681 60.706 66.0681 61.3987C66.0681 62.0915 65.5175 62.6551 64.8407 62.6551Z" fill="#222222"/>
<ellipse cx="36.457" cy="44.9236" rx="2.52194" ry="2.5818" fill="#F6FAFD"/>
<path d="M36.4568 49.3331C38.7872 49.3331 40.6831 47.3921 40.6831 45.0065C40.6831 42.6208 38.7872 40.6797 36.4568 40.6797C34.1264 40.6797 32.2305 42.6207 32.2305 45.0063C32.2305 47.392 34.1264 49.3331 36.4568 49.3331ZM36.4568 42.5695C37.7694 42.5695 38.8372 43.6626 38.8372 45.0065C38.8372 46.3503 37.7694 47.4434 36.4568 47.4434C35.1442 47.4434 34.0764 46.3503 34.0764 45.0065C34.0764 43.6626 35.1442 42.5695 36.4568 42.5695Z" fill="#222222"/>
<defs>
<filter id="filter0_f_126_143" x="0.0644531" y="14.8545" width="72.7852" height="60.6543" filterUnits="userSpaceOnUse" color-interpolation-filters="sRGB">
<feFlood flood-opacity="0" result="BackgroundImageFix"/>
<feBlend mode="normal" in="SourceGraphic" in2="BackgroundImageFix" result="shape"/>
<feGaussianBlur stdDeviation="10" result="effect1_foregroundBlur_126_143"/>
</filter>
</defs>
</svg>
