<svg width="80" height="71" viewBox="0 0 80 71" fill="none" xmlns="http://www.w3.org/2000/svg">
<path d="M51.0001 54.5149L48.4532 53.0145C47.6769 52.5579 46.7887 52.3168 45.8839 52.3163H42.0509C41.2662 52.3149 40.485 52.4143 39.7262 52.6111L28.1774 55.6596C26.9147 56.0024 25.9005 56.9272 25.4581 58.1395L15.2999 52.7355C14.4762 52.2746 13.5118 52.118 12.5812 52.2938C12.2301 52.3548 11.8898 52.4647 11.5699 52.6203C10.8478 52.9602 10.2486 53.5095 9.85216 54.1937C9.50548 54.7896 9.32336 55.4642 9.32336 56.1503C9.31261 57.5513 10.0675 58.8497 11.2999 59.5516L29.506 70.2631C30.297 70.7447 31.2081 70.9997 32.1383 70.9997H46.2281C46.8575 71.0002 47.4811 70.883 48.066 70.6554L51.0001 69.516V70.9997H61.0001V51.333H51.0001V54.5149ZM47.3312 68.8266C46.9811 68.9624 46.6075 69.0325 46.2311 69.033H32.1383C31.5748 69.0325 31.0226 68.8765 30.545 68.5826L12.3141 57.8586C11.6944 57.5067 11.3151 56.8547 11.3199 56.1512C11.3214 55.8065 11.4137 55.4675 11.588 55.1679C11.7872 54.8285 12.087 54.5562 12.4469 54.3882C12.6056 54.3123 12.7736 54.2585 12.9469 54.2288C13.0734 54.2057 13.2018 54.1937 13.3302 54.1937C13.6739 54.1927 14.0118 54.2811 14.3102 54.4491L25.3253 60.3021C25.338 60.3621 25.338 60.4212 25.3541 60.4812C25.8278 62.1977 27.4112 63.3899 29.2203 63.3918C29.777 63.3419 30.3282 63.2449 30.8683 63.1028L41.2579 60.3688L40.7423 58.4689L30.3863 61.1908C29.9303 61.2941 29.3419 61.4122 29.2203 61.4223C28.317 61.4237 27.525 60.8302 27.2872 59.9737C27.255 59.8546 27.236 59.7326 27.2291 59.6097C27.2291 59.6097 27.2213 59.3716 27.2291 59.288C27.3053 58.4655 27.8912 57.7751 28.7003 57.5537L40.2443 54.5168C40.8336 54.3618 41.441 54.283 42.0509 54.283H45.8839C46.4269 54.283 46.9596 54.428 47.4249 54.7022L51.0001 56.8071V67.4005L47.3312 68.8266ZM53.0001 53.2997H59.0001V69.033H53.0001V53.2997Z" fill="#222222"/>
<g filter="url(#filter0_f_126_136)">
<path d="M20.756 26.3899L20.3901 44.0179V44.3777H59.9023V20.6338H31.3657L36.4877 26.7496L32.8292 30.3472L25.8779 24.9509L20.756 26.3899Z" fill="#1DBF73" fill-opacity="0.5"/>
</g>
<path d="M20.756 26.3899L20.3901 44.0179V44.3777H59.9023V20.6338H31.3657L36.4877 26.7496L32.8292 30.3472L25.8779 24.9509L20.756 26.3899Z" fill="#1DBF73"/>
<path d="M42.2441 19.8667L36.8799 14.5923C35.1958 12.9267 32.9043 11.9933 30.5161 12H17.9438C17.168 12.001 16.4028 12.1791 15.708 12.5191L13.4668 13.6215C13.0176 13.8438 12.5186 13.9499 12.0161 13.9302L11 13.8952V12H1V33.6334H11V30.6834H12.7002L13.3052 31.0766C14.998 32.1819 16.9692 32.8061 19 32.8791V45.4334H61V19.8667H42.2441ZM9 31.6667H3V13.9667H9V31.6667ZM14.4121 29.4403L13.2998 28.7167H11V15.8628L11.9429 15.8959C12.7803 15.9252 13.6113 15.748 14.3608 15.3807L16.6001 14.2783C17.0171 14.0733 17.4775 13.9667 17.9438 13.9667H30.5161C32.3735 13.9614 34.1562 14.6874 35.4658 15.9823L39.416 19.8667H31.1641L28.7368 17.4804L27.3232 18.8704L34.3872 25.8171C35.1719 26.5853 35.1743 27.8337 34.3931 28.6058C33.6113 29.3774 32.3418 29.3798 31.5571 28.6115L25.6572 22.81L24.957 23.4001C23.0239 25.0143 20.1982 25.0556 18.2168 23.498L17.6372 23.0361L16.377 24.5639L16.9629 25.0311C17.5757 25.5127 18.2637 25.8939 19 26.1599V30.9114C17.3633 30.8399 15.7769 30.3314 14.4121 29.4403ZM28.6372 28.5198L30.146 30.004C31.7124 31.5212 34.2271 31.5236 35.7959 30.0088C34.3281 32.2438 34.9072 35.2183 37.1108 36.762C39.3145 38.3056 42.3628 37.8721 44.0312 35.7782C45.6997 33.6838 45.3984 30.6694 43.3467 28.9352C41.2954 27.2009 38.2192 27.3598 36.3643 29.2958C37.0474 28.2409 37.1694 26.9262 36.6919 25.7667H50.083C50.5132 28.2409 52.4839 30.1787 55 30.6017V34.6983C52.4839 35.1213 50.5132 37.0592 50.083 39.5334H29.917C29.4868 37.0592 27.5161 35.1213 25 34.6983V30.6017C26.4292 30.365 27.7217 29.6251 28.6372 28.5198ZM37 32.65C37 31.0209 38.3433 29.7 40 29.7C41.6567 29.7 43 31.0209 43 32.65C43 34.2792 41.6567 35.6 40 35.6C38.3433 35.6 37 34.2792 37 32.65ZM59 43.4667H21V26.5719C22.5854 26.6891 24.166 26.2915 25.5 25.4412L27.2061 27.1188C26.4556 28.1213 25.2661 28.7143 24 28.7167H23V36.5834H24C26.209 36.5834 28 38.3445 28 40.5167V41.5H52V40.5167C52 38.3445 53.791 36.5834 56 36.5834H57V28.7167H56C53.791 28.7167 52 26.9555 52 24.7834V23.8H35.1641L33.1641 21.8334H59V43.4667Z" fill="#222222"/>
<defs>
<filter id="filter0_f_126_136" x="0.390137" y="0.633789" width="79.5122" height="63.7441" filterUnits="userSpaceOnUse" color-interpolation-filters="sRGB">
<feFlood flood-opacity="0" result="BackgroundImageFix"/>
<feBlend mode="normal" in="SourceGraphic" in2="BackgroundImageFix" result="shape"/>
<feGaussianBlur stdDeviation="10" result="effect1_foregroundBlur_126_136"/>
</filter>
</defs>
</svg>
